<?xml version="1.0" standalone="no"?>
<!DOCTYPE svg PUBLIC "-//W3C//DTD SVG 20010904//EN"
 "http://www.w3.org/TR/2001/REC-SVG-20010904/DTD/svg10.dtd">
<svg version="1.0" xmlns="http://www.w3.org/2000/svg"
 width="2276.000000pt" height="227.000000pt" viewBox="0 0 2276.000000 227.000000"
 preserveAspectRatio="xMidYMid meet">
<metadata>
Created by potrace 1.16, written by Peter Selinger 2001-2019
</metadata>
<g transform="translate(0.000000,227.000000) scale(0.100000,-0.100000)"
fill="#000000" stroke="none">
<path d="M0 1096 l0 -1096 11380 0 11380 0 0 1091 c0 1035 -1 1090 -18 1085
-101 -32 -436 -125 -597 -166 -60 -15 -189 -48 -285 -72 -204 -53 -333 -84
-860 -208 -135 -32 -494 -105 -780 -159 -91 -17 -171 -33 -177 -36 -35 -12
-651 -122 -903 -160 -91 -14 -172 -28 -180 -30 -15 -5 -315 -51 -560 -86 -74
-11 -182 -26 -240 -35 -145 -21 -535 -69 -840 -104 -140 -16 -266 -32 -280
-35 -14 -2 -151 -16 -305 -30 -154 -14 -318 -29 -365 -35 -47 -5 -229 -21
-405 -35 -176 -14 -369 -29 -430 -35 -60 -5 -245 -16 -410 -25 -165 -8 -406
-22 -535 -30 -266 -16 -650 -30 -1235 -45 -355 -9 -413 -13 -515 -34 -118 -24
-206 -58 -315 -124 -59 -35 -85 -54 -330 -238 -66 -50 -149 -107 -185 -126
-395 -216 -795 -218 -1225 -5 -70 35 -154 90 -483 315 -107 74 -262 148 -357
172 -117 30 -224 38 -575 45 -393 7 -842 22 -1065 35 -93 6 -361 22 -595 35
-234 14 -472 29 -530 35 -58 5 -229 19 -380 30 -151 12 -309 25 -350 30 -41 5
-181 19 -310 30 -129 11 -311 29 -405 40 -93 11 -246 29 -340 40 -328 38 -670
80 -687 86 -9 3 -115 18 -235 34 -289 39 -980 145 -1014 156 -9 2 -92 18 -185
34 -520 89 -1057 196 -1604 319 -203 46 -559 133 -785 191 -88 23 -196 50
-240 61 -44 11 -129 33 -190 50 -254 71 -423 119 -438 125 -16 6 -17 -73 -17
-1090z"/>
</g>
</svg>
