<?xml version="1.0" standalone="no"?>
<!DOCTYPE svg PUBLIC "-//W3C//DTD SVG 20010904//EN"
 "http://www.w3.org/TR/2001/REC-SVG-20010904/DTD/svg10.dtd">
<svg version="1.0" xmlns="http://www.w3.org/2000/svg"
 width="2880.000000pt" height="1310.000000pt" viewBox="0 0 2880.000000 1310.000000"
 preserveAspectRatio="xMidYMid meet">
<metadata>
Created by potrace 1.16, written by Peter Selinger 2001-2019
</metadata>
<g transform="translate(0.000000,1310.000000) scale(0.100000,-0.100000)"
fill="#000000" stroke="none">
<path d="M2 7108 l3 -5663 310 -42 c4393 -600 8655 -960 12625 -1068 1065 -29
2465 -40 3453 -27 2355 31 4181 123 6292 317 1898 174 3968 462 5675 788 l435
83 3 5637 c1 3100 0 5637 -3 5637 -2 0 -30 -7 -62 -16 -276 -74 -620 -163
-843 -219 -58 -14 -118 -30 -135 -35 -16 -5 -124 -32 -240 -60 -115 -28 -226
-55 -245 -60 -19 -5 -75 -19 -125 -31 -49 -11 -135 -31 -190 -44 -106 -25
-245 -56 -360 -81 -38 -8 -86 -19 -105 -24 -19 -5 -69 -16 -110 -25 -41 -9
-102 -23 -135 -30 -232 -53 -385 -87 -475 -105 -25 -5 -88 -18 -140 -30 -52
-11 -185 -39 -295 -62 -110 -22 -263 -54 -340 -70 -135 -28 -180 -37 -365 -73
-47 -9 -114 -23 -150 -30 -71 -14 -191 -37 -315 -60 -44 -8 -118 -21 -165 -30
-47 -9 -121 -23 -165 -31 -44 -8 -118 -22 -165 -30 -47 -8 -119 -21 -160 -29
-248 -45 -397 -72 -515 -91 -49 -9 -126 -21 -170 -29 -276 -47 -257 -44 -550
-90 -272 -43 -613 -95 -793 -120 -148 -21 -297 -43 -417 -60 -58 -8 -153 -22
-212 -30 -102 -14 -150 -21 -463 -60 -69 -8 -177 -22 -240 -30 -342 -44 -580
-71 -1055 -121 -299 -30 -432 -44 -550 -54 -66 -5 -158 -14 -205 -19 -47 -6
-119 -13 -160 -16 -41 -3 -122 -10 -180 -15 -58 -5 -204 -16 -325 -25 -121 -8
-281 -20 -355 -25 -74 -6 -211 -15 -305 -20 -93 -5 -249 -14 -345 -19 -608
-35 -936 -47 -1687 -62 -999 -19 -2146 12 -3363 92 -85 5 -222 14 -305 19 -82
6 -170 12 -195 15 -25 2 -117 9 -205 15 -88 6 -176 13 -195 15 -19 3 -84 10
-145 15 -190 16 -435 39 -590 55 -82 9 -213 22 -290 30 -446 46 -713 76 -1050
120 -66 8 -174 22 -240 30 -264 33 -535 69 -675 89 -52 8 -147 22 -210 31
-144 21 -281 41 -410 60 -55 8 -144 22 -198 30 -91 13 -187 28 -397 60 -132
21 -268 43 -365 60 -47 8 -125 21 -175 29 -84 14 -141 24 -350 61 -47 8 -123
21 -170 30 -47 8 -122 21 -168 29 -45 8 -120 22 -167 31 -47 8 -121 22 -165
31 -44 8 -118 21 -165 30 -112 20 -218 40 -310 58 -41 8 -102 20 -135 26 -97
18 -486 97 -670 135 -93 19 -226 47 -295 60 -144 29 -537 114 -735 159 -38 9
-128 29 -200 45 -71 16 -184 40 -250 55 -214 47 -600 138 -665 156 -31 9 -409
102 -550 135 -30 8 -82 21 -115 30 -33 9 -85 22 -115 30 -30 7 -82 21 -115 30
-33 9 -85 22 -115 30 -30 7 -109 28 -175 45 -66 18 -142 38 -170 45 -27 7 -76
21 -108 29 -32 9 -60 16 -62 16 -3 0 -4 -2548 -3 -5662z"/>
</g>
</svg>
